<?xml version="1.0" encoding="utf-8"?>
<!-- Generator: Adobe Illustrator 22.0.1, SVG Export Plug-In . SVG Version: 6.00 Build 0)  -->
<svg version="1.1" id="Layer_1" xmlns="http://www.w3.org/2000/svg" xmlns:xlink="http://www.w3.org/1999/xlink" x="0px" y="0px"
	 viewBox="0 0 759.9 375.5" style="enable-background:new 0 0 759.9 375.5;" xml:space="preserve">
<style type="text/css">
	.st0{fill:#F7F7F7;}
	.st1{fill:#ECECEC;}
	.st2{fill:#D4D4D4;}
	.st3{fill:none;stroke:#000000;stroke-width:1.5;stroke-miterlimit:10;}
	.st4{fill:none;stroke:#F7F7F7;stroke-miterlimit:10;}
	.st5{fill:none;stroke:#ECECEC;stroke-miterlimit:10;}
	.st6{fill:none;stroke:#D4D4D4;stroke-miterlimit:10;}
	.st7{fill:#D8D8D8;}
	.st8{fill:none;stroke:#000000;stroke-width:2;stroke-miterlimit:10;}
	.st9{fill:none;}
	.st10{fill:#FFFFFF;stroke:#777777;stroke-miterlimit:10;}
	.st11{fill:#777777;stroke:#777777;stroke-miterlimit:10;}
	.st12{fill:none;stroke:#777777;stroke-miterlimit:10;}
	.st13{fill:#FF952D;stroke:#AA5F1B;stroke-miterlimit:10;}
	.st14{fill:#D4D4D4;stroke:#777777;stroke-miterlimit:10;}
	.st15{fill:#777777;}
	.st16{fill:none;stroke:#000000;stroke-miterlimit:10;}
	.st17{fill:#FF952D;stroke:#777777;stroke-width:1.5;stroke-miterlimit:10;}
</style>
<path class="st0" d="M34.5,301.5c20.3-4.6,58-16,95.5-46c36.6-29.2,55.9-62.4,65-81c5.8-11.4,29.2-54.5,81.5-75
	c37.9-14.9,71.6-10.3,86-7.5c10.8,2.1,23.9,5.7,38,12c24.2,10.7,41.5,24.8,52.5,35.5c-58.9-7.9-95,4.4-117.5,18
	c-12.3,7.5-22.6,16.5-71.5,51c-14.4,10.1-26.4,18.4-34.5,24c-20.7,16.2-54,38.2-99.5,53C92.1,297.9,58.5,301.1,34.5,301.5z"/>
<path class="st1" d="M724.5,301.5c-9.2-5-22.8-12.8-38.5-23.5c-29.3-20-41-33.1-66.5-54c-18.5-15.2-43.4-35.6-75-52.5
	c-19.6-10.5-50-24-91.5-32c-13-2.5-32.1-4.7-55-2c-26.9,3.1-46,11.5-50.5,13.5c-19.1,8.6-26.8,16.7-50,34
	c-13.2,9.9-32.6,23.5-57.5,38.5c-18.2,16.1-46.4,37.2-85,53.5c-49.3,20.8-93.4,24.4-120.5,24.5c61.7,3.3,109.8-3.1,142-9.5
	c54.1-10.7,82-24.8,147-35.5c41-6.7,74.9-8.5,96.5-9c42.6-0.2,76.2,4.8,99,9.5c70.5,14.4,120.5,32,120.5,32c7.6,2.7,26.7,9.6,53,12
	C706,302.3,717.2,302,724.5,301.5z"/>
<path class="st2" d="M699,303.5l-625-1c16.5-0.2,43.4-1.2,76-6c58.5-8.5,85.6-21.7,146.5-34.5c22.4-4.7,56.5-10.9,99.5-14.5
	c36.7-2.3,66.8,0.1,88.5,3c22.8,3,42.1,7.4,60,11.5c10.9,2.5,31.3,7.2,57.5,15c25.7,7.7,32.2,11,54.5,17
	C674.5,298.9,689.5,301.8,699,303.5z"/>
<path class="st1" d="M55,303c10.8,3.2,26.8,8,46,14c35,11,43.3,14.3,63,20.5c27.9,8.8,58.4,18.3,96,24.5c19.2,3.2,46.3,6.4,79.5,6.5
	c58.3,3.5,108.1,0.5,146.5-4c27.8-3.2,57.5-6.7,96-17c25.3-6.8,40.2-12.7,95-29c19.5-5.8,35.6-10.4,46.5-13.5
	C500.7,304.4,277.8,303.7,55,303z"/>
<line class="st3" x1="28" y1="303.5" x2="703" y2="303.5"/>
<line class="st3" x1="709.5" y1="303" x2="752" y2="302"/>
<path class="st1" d="M253.5,155.6c0.3-0.9,1.8-5.2,6.5-7.5c5.9-2.9,11.5,0.2,12,0.5c2.6,0.8,7.8,1.9,14,0.5c9.7-2.2,15.1-9,16.5-11
	c-1.3,3.7-3.7,8.8-8,14c-5.9,7.2-12.5,11.1-16.5,13c-7.5,5.1-16.4,4.7-21,0C253.8,161.8,253.5,157.3,253.5,155.6z"/>
<circle class="st4" cx="98.8" cy="82.3" r="4.3"/>
<circle class="st5" cx="494.8" cy="70.3" r="5.3"/>
<circle class="st5" cx="521.5" cy="120.1" r="6.5"/>
<circle class="st6" cx="513" cy="53" r="2.5"/>
<path class="st1" d="M661.4,145c-0.9-1.3-6-7.7-17.7-9.1c-14.8-1.9-27,5.7-28.1,6.4c-5.9,2.5-17.7,6.7-32.8,7.4
	c-23.5,1-38.4-7.6-42.4-10.1c4.4,5.3,11.6,12.5,23.4,19c16.2,8.9,33,12.1,43.1,13.4c19.4,4.7,40.1-0.1,49.4-9.8
	C662.8,155.2,662,147.8,661.4,145z"/>
<circle class="st7" cx="687.8" cy="180.8" r="6.3"/>
<circle class="st0" cx="710.3" cy="170.8" r="4.3"/>
<circle class="st1" cx="143" cy="38.5" r="3.5"/>
<circle class="st1" cx="16.3" cy="60.8" r="4.3"/>
<circle class="st1" cx="141.8" cy="105.8" r="4.3"/>
<circle class="st1" cx="114" cy="154.1" r="4"/>
<path class="st0" d="M56.6,184.6c0.8,0.3,5.2,2,10-0.2c6-2.7,7.4-9,7.5-9.6c1.1-2.5,3.7-7.2,8.8-11.1c8-6.1,16.7-5.8,19.2-5.6
	c-3.7-1.3-9.1-2.8-15.9-2.9c-9.3-0.1-16.6,2.5-20.7,4.4c-8.8,2.5-14.3,9.7-13.8,16.2C52,180.4,55.3,183.5,56.6,184.6z"/>
<path class="st5" d="M192,111.1c0.2-0.2,0.6-0.6,1-1c3.6-3.6,4.7-4.5,6-5.9c1-1.1,2.3-2.8,3.5-5.1c-1-4-2-8-3-12
	c0-0.1,0.2-1.3,1.3-1.9c0.1-0.1,1.1-0.6,2.3-0.1c1.1,1.6,2.8,3.7,5.3,5.6c1.3,1,2.6,1.8,3.8,2.4c1.3,0.3,3.2,0.6,5.4,0.4
	c3.3-0.3,5.8-1.6,7.1-2.4c1.5-0.3,2.9,0.5,3.3,1.8c0.3,0.9,0,1.9-0.8,2.6c-1.3,0.8-2.8,2-4.4,3.6c-1.7,1.8-2.9,3.6-3.6,5
	c-0.1,1.5-0.1,3.5,0.3,5.6c0.4,2.6,1.1,4.8,1.8,6.4c0.6,1.5-0.2,3.1-1.5,3.5c-1.1,0.3-2.5-0.3-3-1.5c-0.9-1.1-1.9-2.2-3-3.3
	c-1.7-1.7-3.4-3.3-5-4.8c-1.4-0.1-3.2,0-5.3,0.4c-3.5,0.7-6.1,2.1-7.8,3.1c-0.1,0-1.3,0.4-2.4-0.4C193,113.1,192,112.4,192,111.1z"
	/>
<path class="st5" d="M33.7,229.2c0.1,0,0.3-0.1,0.5-0.1c1.8-0.5,2.2-0.5,2.9-0.7c0.5-0.2,1.2-0.4,2-0.9c0.4-1.4,0.8-2.8,1.2-4.2
	c0,0,0.3-0.4,0.7-0.4c0,0,0.5,0,0.7,0.4c0,0.7,0.2,1.6,0.6,2.7c0.2,0.5,0.5,1,0.7,1.4c0.3,0.3,0.9,0.7,1.6,1.1
	c1.1,0.5,2,0.5,2.6,0.5c0.5,0.2,0.8,0.7,0.7,1.1c-0.1,0.3-0.3,0.6-0.7,0.7c-0.5,0-1.2,0.1-2,0.3c-0.8,0.3-1.5,0.6-2,0.9
	c-0.3,0.5-0.6,1-0.9,1.8c-0.3,0.9-0.5,1.6-0.6,2.3c-0.1,0.6-0.6,0.9-1.1,0.8c-0.4-0.1-0.7-0.5-0.7-1c-0.1-0.5-0.2-1-0.3-1.5
	c-0.2-0.8-0.4-1.6-0.7-2.3c-0.4-0.3-1-0.6-1.7-0.8c-1.2-0.4-2.2-0.4-2.9-0.4c0,0-0.5-0.1-0.7-0.5C33.7,230,33.5,229.6,33.7,229.2z"
	/>
<path class="st5" d="M574.8,44.5c0.1,0,0.3-0.1,0.5-0.2c1.7-0.8,2.1-0.9,2.7-1.2c0.5-0.2,1.1-0.6,1.8-1.3c0.2-1.4,0.3-2.9,0.5-4.3
	c0,0,0.2-0.4,0.6-0.5c0,0,0.4-0.1,0.8,0.2c0.2,0.7,0.5,1.6,1.1,2.5c0.3,0.5,0.6,0.9,1,1.2c0.4,0.3,1,0.6,1.7,0.8
	c1.1,0.3,2.1,0.2,2.7,0.1c0.5,0.1,0.9,0.5,0.9,1c0,0.3-0.2,0.6-0.6,0.8c-0.5,0.1-1.2,0.3-1.9,0.7c-0.8,0.4-1.4,0.8-1.8,1.2
	c-0.2,0.5-0.4,1.1-0.6,1.9c-0.2,0.9-0.2,1.7-0.2,2.3c0,0.6-0.4,1-0.9,1c-0.4,0-0.8-0.4-0.8-0.9c-0.2-0.5-0.4-0.9-0.6-1.4
	c-0.4-0.8-0.7-1.5-1.1-2.2c-0.5-0.2-1.1-0.4-1.8-0.5c-1.2-0.2-2.3-0.1-3,0.1c0,0-0.5,0-0.7-0.4C574.9,45.3,574.6,44.9,574.8,44.5z"
	/>
<circle class="st5" cx="117.9" cy="184.5" r="5.8"/>
<line class="st8" x1="14" y1="304" x2="21" y2="304"/>
<circle class="st5" cx="154.3" cy="45.3" r="3.3"/>
<circle class="st4" cx="157.3" cy="156.2" r="3"/>
<circle class="st9" cx="118.3" cy="184.3" r="4.8"/>
<circle class="st9" cx="117.8" cy="183.8" r="4.8"/>
<circle class="st1" cx="669.5" cy="27.5" r="4.5"/>
<path class="st10" d="M136.2,202.5c1.9-2.4,5.3-6,10.5-9c4.8-2.8,9.3-4,12.3-4.5c19.5-0.9,39-1.8,58.5-2.8
	c5.9,12.5,12.2,28.6,16.8,47.8c5.4,22.6,6.6,42.6,6.5,58c-8.9,3.5-18.9,6.8-30,9.8c-8.6,2.3-16.7,4-24.3,5.3
	c-3.1,0.9-7.7,1.9-13.3,1.8c-5-0.1-9.1-1.1-12-2c0.3-19.8-2.1-36.5-4.8-48.8c-4.2-19.6-10-33.9-12.3-39
	C141.3,212.2,138.5,206.6,136.2,202.5z"/>
<ellipse transform="matrix(0.9685 -0.249 0.249 0.9685 -49.292 57.242)" class="st11" cx="201.6" cy="223.5" rx="1.4" ry="4"/>
<ellipse transform="matrix(0.9685 -0.249 0.249 0.9685 -48.5477 60.6263)" class="st11" cx="215.4" cy="222.2" rx="1.4" ry="4"/>
<polyline class="st11" points="201,242.5 203.2,242.3 205.7,242.2 "/>
<line class="st11" x1="224" y1="238.5" x2="219.7" y2="238.2"/>
<path class="st12" d="M203.2,242.3c0.8,3.9,2.4,6.4,3.5,7.9c1.6,2.2,2.8,2.8,3.3,3c2.4,1.1,4.8,0.5,5.8,0.3c1.2-0.5,2.6-1.2,3.8-2.5
	c4.4-4.8,2.2-12.2,2-12.8"/>
<path class="st1" d="M185.2,307.2c0.9-17.2,0.3-40.6-6-67.4c-4.8-20.4-11.6-37.4-18-50.5l25.9-1.3c-12.4,23.4-11.6,51.4,2.3,72.9
	c17.3,26.7,46.7,31.1,51.2,31.7C222.2,297.5,203.7,302.4,185.2,307.2"/>
<path class="st13" d="M160.8,189.1c2.7,5.5,5.4,11.6,8,18.3c3.1,8.1,5.5,15.8,7.3,22.8c-3.7-0.1-9.3,0.3-15.5,2.6
	c-4,1.4-7.2,3.3-9.5,4.9c-1.9-5.8-4.1-11.9-6.8-18.4c-2.7-6.4-5.5-12.3-8.3-17.6c1.8-2.2,4.7-5.2,9-7.8
	C151.4,190.1,157.5,189.2,160.8,189.1z"/>
<path class="st13" d="M159,272.5c2.9,0.6,7.2,1,12.2,0.4c5.5-0.6,9.8-2.3,12.6-3.6c0.6,5.4,1.1,11.2,1.3,17.3
	c0.3,7.3,0.3,14.1,0.1,20.5c-3.2,0.7-7.4,1.3-12.4,1.2c-4.6-0.1-8.6-0.9-11.6-1.7c-0.1-5.1-0.2-10.3-0.6-15.8
	C160.3,284.5,159.7,278.3,159,272.5z"/>
<path class="st14" d="M166.2,248.2c5.7,6,12.9,12.6,21.8,19c5,3.6,9.9,6.7,14.5,9.3c3.8,1.2,8.3,2.3,13.5,3c5,0.7,9.4,0.8,13.3,0.8
	c1.3-0.5,2.9-1.1,4.8-1.5c2.1-0.4,4-0.5,5.5-0.5c1.4,0.7,2.8,1.3,4.3,2l-0.5,2c0.4,0.1,1.9,0.4,2.8,1.8c1,1.6,0.6,3.9-1,5.5
	c-0.5,0.6-1.2,1.4-2.3,2c-2.4,1.4-4.9,1.1-5.8,1c-2.5-2.7-5-5.3-7.5-8c-9.7-1.5-19.3-3-29-4.5c-4.8-3-10.1-6.8-15.5-11.5
	C176.9,261.4,170.8,254.3,166.2,248.2z"/>
<path class="st13" d="M187.5,187.7c0.1-0.6,1-5.6,5.5-7.9c2.7-1.4,5.2-1.2,6.3-1c0.9,0,6,0,10-4.1c3.5-3.5,3.9-7.8,4-8.9
	c1.1,1.8,2.2,3.6,3.3,5.4l6.5-6.9c-0.2,2.4-1.3,10.8-7,13.8c-2.1,1.1-4.5,1.4-8.3,1.8c-3.4,0.4-6.3,0.4-8.3,0.3
	c-0.3,2.4-0.7,4.8-1,7.1C194.8,187.4,191.2,187.5,187.5,187.7z"/>
<path class="st14" d="M191.2,306.2c-0.2,3-0.8,7-2.5,11.5c-1.3,3.4-2.9,6.2-4.3,8.3c-8,3.9-16,7.8-24,11.8c0.4,1.3,1.3,3.1,3,4.5
	c3,2.5,6.1,1.6,8.5,4c0.9,0.9,1.9,2.5,2,5.5c-2.1,0.4-4.4,0.6-7,0.8c-0.8,0-3.3,0-5.7-0.2c-2.2-0.1-4.3-0.2-5-0.3
	c-0.7-2-1.4-4.2-2-6.8c-0.7-3.1-1.1-6-1.3-8.5c1-0.3,2-0.5,3-0.8c3.5-0.8,7.6-2.1,12-4c6-2.7,10.8-5.8,14.3-8.5
	c0.7-1.5,1.4-3.2,2-5.3c1.2-4.4,1.2-8.3,1-11C187.2,306.9,189.2,306.6,191.2,306.2z"/>
<path class="st14" d="M217,300.7l6.3-2.5c3,5.5,5.9,11.5,8.8,18c4,9.3,7.1,18.2,9.5,26.3c3.9-0.3,7.8-0.7,11.8-1
	c3.1-1,6.4-0.4,8.7,1.8c2.7,2.5,2.8,5.9,2.8,6.5c-4.1-0.3-8.2-0.5-12.2-0.8c-5,0-10,0-15,0c-0.3-0.4-0.9-1.1-1-2.3
	c-0.3-2.2,1.3-3.8,1.5-4c-2-7.4-5.2-16.4-10.5-26C224.1,310.4,220.4,305.1,217,300.7z"/>
<path class="st14" d="M300.7,314.7c-0.6,2.8-1.6,6.2-3.1,9.9c-1,2.3-2,4.2-3.1,6c-5.8,2.8-11.6,5.7-17.4,8.5
	c0.3,0.9,0.9,2.2,2.2,3.3c2.2,1.8,4.4,1.1,6.2,2.9c0.6,0.6,1.4,1.8,1.4,4c-1.5,0.3-3.2,0.5-5.1,0.5c-0.6,0-2.4,0-4.2-0.1
	c-1.6-0.1-3.1-0.2-3.6-0.2c-0.5-1.4-1-3.1-1.4-4.9c-0.5-2.3-0.8-4.4-0.9-6.2c0.7-0.2,1.4-0.4,2.2-0.5c2.5-0.6,5.5-1.5,8.7-2.9
	c4.4-1.9,7.8-4.2,10.3-6.2c0.5-1.2,1-2.4,1.4-3.8c1.4-4.4,1.9-8.4,2-11.7C297.8,313.7,299.3,314.2,300.7,314.7z"/>
<path class="st14" d="M309.7,314c1.5-0.8,3-1.6,4.5-2.3c2.3,4.1,4.6,8.7,6.7,13.8c2.9,6.8,5.2,13.2,6.9,19c2.8-0.2,5.7-0.5,8.5-0.7
	c2.2-0.7,4.7-0.3,6.3,1.3c2,1.8,2,4.3,2,4.7c-3-0.2-5.9-0.4-8.9-0.5c-3.6,0-7.2,0-10.9,0c-0.2-0.3-0.6-0.8-0.7-1.6
	c-0.2-1.6,0.9-2.8,1.1-2.9c-1.4-5.2-3.7-11.8-7.6-18.8C315,321.2,312.2,317.2,309.7,314z"/>
<path class="st14" d="M385.5,315.1c0.2,1.6,0.6,5.6-1.5,9.8c-1.5,3.1-3.5,5-4.8,6c-5.8,2.8-11.6,5.7-17.4,8.5
	c0.3,0.9,0.9,2.2,2.2,3.3c2.2,1.8,4.4,1.1,6.2,2.9c0.6,0.6,1.4,1.8,1.4,4c-1.5,0.3-3.2,0.5-5.1,0.5c-0.6,0-2.4,0-4.2-0.1
	c-1.6-0.1-3.1-0.2-3.6-0.2c-0.1-1.4-0.3-2.9-0.6-4.6c-0.5-2.5-1.1-4.7-1.8-6.5c0.7-0.2,1.4-0.4,2.2-0.5c2.5-0.6,5.5-1.5,8.7-2.9
	c4.4-1.9,7.8-4.2,10.3-6.2c0.9-0.7,2.6-2.1,3.6-4.4c1.9-4.4,0-8.6-0.3-9.3C382.5,315.3,384,315.2,385.5,315.1z"/>
<path class="st14" d="M394.8,314.7c1.6,0,3.2,0,4.7,0c2.1,3.3,4.1,7,6.1,11.2c3.3,6.9,5.4,13.4,6.9,19c2.8-0.6,5.7-1.1,8.5-1.7
	c2.8-1.3,5.9-0.6,7.5,1.5c1.8,2.3,0.9,5.2,0.8,5.4c-3-0.2-5.9-0.4-8.9-0.5c-3.6,0-7.2,0-10.9,0c-0.2-0.3-0.6-0.8-0.7-1.6
	c-0.2-1.6,0.9-2.8,1.1-2.9c-1.5-5.3-3.8-11.8-7.6-18.8C399.9,321.7,397.2,317.9,394.8,314.7z"/>
<path class="st14" d="M481.5,315.2c-0.6,2.8-1.6,6.2-3.1,9.9c-1,2.3-2,4.2-3.1,6c-5.8,2.8-11.6,5.7-17.4,8.5
	c0.3,0.9,0.9,2.2,2.2,3.3c2.2,1.8,4.4,1.1,6.2,2.9c0.6,0.6,1.4,1.8,1.4,4c-1.5,0.3-3.2,0.5-5.1,0.5c-0.6,0-2.4,0-4.2-0.1
	c-1.6-0.1-3.1-0.2-3.6-0.2c-0.5-1.4-1-3.1-1.4-4.9c-0.5-2.3-0.8-4.4-0.9-6.2c0.7-0.2,1.4-0.4,2.2-0.5c2.5-0.6,5.5-1.5,8.7-2.9
	c4.4-1.9,7.8-4.2,10.3-6.2c0.5-1.2,1-2.4,1.4-3.8c1.2-3.7,1.7-7.1,1.9-10C478.5,315.4,480,315.3,481.5,315.2z"/>
<path class="st14" d="M490.2,317.2c1.6-0.2,3.2-0.3,4.8-0.5c1.2,2.3,2.5,4.7,3.7,7.3c3.1,6.8,5.3,13.2,6.9,19
	c2.8-0.2,5.7-0.5,8.5-0.7c2.2-0.7,4.7-0.3,6.3,1.3c2,1.8,2,4.3,2,4.7c-3-0.2-5.9-0.4-8.9-0.5c-3.6,0-7.2,0-10.9,0
	c-0.2-0.3-0.6-0.8-0.7-1.6c-0.2-1.6,0.9-2.8,1.1-2.9c-1.1-5.1-3.3-11.8-7.6-18.8C493.7,321.6,492,319.3,490.2,317.2z"/>
<path class="st14" d="M574.5,313.9c-0.5,3.1-1.4,6.8-3.1,10.9c-1,2.3-2,4.3-3.1,6c-5.8,2.8-11.6,5.7-17.4,8.5
	c0.3,0.9,0.9,2.2,2.2,3.3c2.2,1.8,4.4,1.1,6.2,2.9c0.6,0.6,1.4,1.8,1.4,4c-1.5,0.3-3.2,0.5-5.1,0.5c-0.6,0-2.4,0-4.2-0.1
	c-1.6-0.1-3.1-0.2-3.6-0.2c-0.7-0.7-1.9-2-2.6-4.1c-1.1-3.2-0.1-6,0.3-6.9c0.7-0.2,1.4-0.4,2.2-0.5c2.5-0.6,5.5-1.5,8.7-2.9
	c4.4-1.9,7.8-4.2,10.3-6.2c0.5-1.2,1-2.4,1.4-3.8c1.3-4,1.8-7.7,2-10.8C571.6,314.2,573,314.1,574.5,313.9z"/>
<path class="st14" d="M596.6,310.9c2-0.3,4.1-0.7,6.1-1c2.3,4.3,4.7,9.2,6.9,14.8c2.6,6.6,4.4,12.8,5.6,18.2
	c3.2-0.6,6.3-1.2,9.5-1.8c0.6,0,4.1,0.1,6.6,3.1c1.6,1.8,1.9,3.8,2,4.7c-2.8-0.2-5.8-0.4-8.9-0.5c-4.4-0.2-8.6-0.1-12.5,0
	c-0.1-0.2-0.7-1.2-0.3-2.5c0.4-1.1,1.3-1.6,1.5-1.8c-1-5-3-11.8-6.8-19.1C603.2,319.1,599.7,314.3,596.6,310.9z"/>
<path class="st10" d="M293.2,241.6c5.2,6.6,12.2,17.2,17.1,31.6c5.2,15.1,5.9,28.4,5.8,37c-1.7,1.2-6.1,4-12.3,4
	c-3.7,0-6.7-1-8.5-1.8c-0.6-8.8-2.1-20.2-6.3-33c-3.7-11.4-8.3-20.7-12.5-27.7c1.2-1.8,3.6-4.9,7.8-7.3
	C287.9,242.5,291.2,241.9,293.2,241.6z"/>
<path class="st13" d="M293.4,241.6c-1.3,0.1-3.7,0-6.4-1.2c-2.2-1-3.7-2.4-4.5-3.3c-1-2.1-3.4-2.8-5-2c-1.8,0.9-2.5,3.7-1,5.8
	c0.5,1,1.2,2.8,1.3,5.3c0,2.8-0.8,4.9-1.3,5.9c1.1-1.8,3.6-5.1,7.9-7.6C288,242.5,291.4,241.9,293.4,241.6z"/>
<path class="st12" d="M280.7,259.5c0.5-0.7,1.3-1.9,2.6-3.1c1.5-1.5,3.6-3,6.4-4.1c4.3-1.7,8.2-1.5,10-1.3"/>
<path class="st12" d="M297.2,304.2c-0.2-5.5-0.9-11.9-2.5-19c-2.8-12.2-7.4-22-11.4-28.9"/>
<path class="st12" d="M293.7,303.2c2.2,0.5,5.9,1.1,10.3,0.5c5.5-0.8,9.5-3.1,11.5-4.5"/>
<path class="st10" d="M394.2,276.2c6.9-0.7,13.8-1.3,20.8-2l5.8,30.3l-10.3,11l-44.8,3.8l-8-31l9-8.5l22-2.8"/>
<path class="st13" d="M394.2,276.2c0.5-0.4,1.7-1.4,2.3-3c0.2-0.7,0.3-1.3,0.3-1.8c0-0.2,0.1-0.4,0-0.7c-0.2-0.8-1.1-1.4-1.8-1.3
	c-0.7,0.1-1,0.9-1.8,2c-0.5,0.7-1.4,1.6-2.7,2.5c-0.9-1.8-1.8-3.5-2.8-5.3c-0.5-0.9-1-1.8-1.5-2.7c-0.8,0-1.8,0.1-2.2,0.7
	c-0.5,0.8,0.6,2.2,1.5,3.5c1,1.5,2.2,3.7,3.3,6.9L394.2,276.2z"/>
<ellipse transform="matrix(0.9529 -0.3032 0.3032 0.9529 -65.5767 102.6865)" class="st12" cx="297.9" cy="262.5" rx="0.8" ry="1.1"/>
<ellipse transform="matrix(0.9529 -0.3032 0.3032 0.9529 -65.5767 102.6865)" class="st15" cx="297.9" cy="262.5" rx="0.8" ry="1.1"/>
<ellipse transform="matrix(0.9529 -0.3032 0.3032 0.9529 -64.6878 104.4116)" class="st15" cx="303.9" cy="260.5" rx="0.8" ry="1.1"/>
<path class="st10" d="M298,269.7c1.4-0.5,2.8-1.1,4.4-1.6c1.8-0.6,3.6-1.1,5.2-1.4c0.1,0.2,0.7,3.2-1.3,5.2
	c-0.8,0.7-1.6,1.1-2.2,1.2c-0.3,0.1-2.3,0.7-4.1-0.6C298.5,271.6,298.1,270.1,298,269.7z"/>
<path class="st14" d="M290.7,273.6c3.5,4.2,8,8.7,13.4,13.1c3.1,2.5,6.1,4.6,8.8,6.3c2.3,0.8,5,1.5,8.1,1.8c3,0.4,5.6,0.4,7.9,0.2
	c0.7-0.4,1.7-0.9,2.8-1.2c1.3-0.4,2.4-0.5,3.2-0.5c0.9,0.4,1.7,0.9,2.6,1.3l-0.2,1.4c0.2,0,1.1,0.2,1.7,1.2c0.6,1.1,0.5,2.8-0.4,4
	c-0.3,0.4-0.7,1-1.3,1.5c-1.4,1.1-2.9,0.9-3.4,0.8c-1.6-1.9-3.1-3.7-4.7-5.6c-5.8-0.9-11.5-1.7-17.3-2.6c-2.9-2.1-6.2-4.6-9.5-7.9
	C297.3,282.9,293.5,277.9,290.7,273.6z"/>
<path class="st14" d="M363.4,293.2c3.5,4.2,8,8.7,13.4,13.1c3.1,2.5,6.1,4.6,8.8,6.3c2.3,0.8,5,1.5,8.1,1.8c3,0.4,5.6,0.4,7.9,0.2
	c0.7-0.4,1.7-0.9,2.8-1.2c1.3-0.4,2.4-0.5,3.2-0.5c0.9,0.4,1.7,0.9,2.6,1.3l-0.2,1.4c0.2,0,1.1,0.2,1.7,1.2c0.6,1.1,0.5,2.8-0.4,4
	c-0.3,0.4-0.7,1-1.3,1.5c-1.4,1.1-2.9,0.9-3.4,0.8c-1.6-1.9-3.1-3.7-4.7-5.6c-5.8-0.9-11.5-1.7-17.3-2.6c-2.9-2.1-6.2-4.6-9.5-7.9
	C370.1,302.5,366.3,297.5,363.4,293.2z"/>
<path class="st14" d="M475.9,248.8c0.2-0.1,2.2,3.1,6.3,9.6c3.2,5.1,3.8,6.2,5.3,8c2.7,3.4,5.6,5.6,7.5,6.9c1.8,1.3,3.4,1.9,4.5,2.3
	c2.3,0.7,6.9,2.4,8,1.9c1-0.5,1.8-0.6,2.5-0.6c0.7,0.6,1.4,1.2,2,1.8l-0.2,1.9c0.2,0.1,0.9,0.3,1.3,1.6c0.5,1.5,0.4,3.6-0.3,5.2
	c-0.6,1.3-0.7,1.7-1,1.9c-0.7,0.5-1.5,0.4-2.6,0.2c-0.3,0-1.2-0.2-2.6-0.8c-0.7-0.3-1.8-0.8-2.9-1.6c-1-2.5-1.9-5.1-2.9-7.6
	c-2.1-1-4.2-2.1-6.3-3.1c-1.6-0.7-3.8-2-6.1-4c-2.4-2.1-3.8-4.2-5-6.1C478.7,258.5,475.2,249.1,475.9,248.8z"/>
<path class="st10" d="M535,211l65.3-8.3c5.9,12.9,12.4,30.2,16.5,51.3c4.1,21,4.6,39.4,4,53.5c-21.3,2.9-42.5,5.8-63.8,8.8
	c-1.5-15.5-3.9-32.5-7.6-50.6C545.3,245.4,540.3,227.1,535,211z"/>
<path class="st14" d="M547.3,275.8c3.6,4.3,8.1,9.1,13.7,13.7c3.2,2.6,6.2,4.8,9.1,6.6c2.3,0.8,5.1,1.5,8.3,2c3,0.4,5.8,0.4,8.1,0.3
	c0.8-0.4,1.7-0.9,2.9-1.2c1.3-0.4,2.4-0.5,3.3-0.5c0.9,0.5,1.8,0.9,2.6,1.4l-0.3,1.5c0.2,0,1.2,0.3,1.7,1.2c0.6,1.1,0.5,2.9-0.5,4.1
	c-0.3,0.4-0.7,1-1.3,1.5c-1.4,1.1-3,0.9-3.5,0.9c-1.6-1.9-3.2-3.9-4.8-5.8c-5.9-0.9-11.9-1.9-17.8-2.8c-3-2.1-6.3-4.8-9.7-8.2
	C554.1,285.5,550.2,280.3,547.3,275.8z"/>
<path class="st10" d="M529.3,217l2.8-2c5.3,14.7,10.5,32.1,14.4,52.1c3.5,18.1,5.2,34.7,5.9,49.1c-1.4,0.1-2.8,0.2-4.3,0.3
	c-0.6-14.2-2.1-30.5-5.4-48.3C539.1,248.7,534.2,231.5,529.3,217z"/>
<path class="st12" d="M574.3,262.5c0.6,2.6,2.6,4.4,4.5,4.3c1.7-0.1,2.8-1.6,3-1.9c1-1.5,1.1-3.5,0.2-5.3"/>
<path class="st12" d="M596.3,257.2c0.1,0.6,0.8,4.3,3.8,5.5c0.5,0.2,1.3,0.6,2,0.3c1.4-0.6,1.7-3.7,0.8-7.8"/>
<path class="st12" d="M580.3,277.3c0.4-0.3,1-0.6,1.9-0.9c0.8-0.2,1.5-0.3,2-0.3"/>
<path class="st12" d="M582.4,277.2c0.5,8.2,6.9,13.1,11.1,12.4c4.2-0.7,8.6-7.3,6.5-15.1"/>
<path class="st12" d="M597.5,275.7c0.3-0.3,0.9-0.9,2-1.1c0.9-0.2,1.6-0.1,2,0"/>
<path class="st16" d="M545.5,263.8"/>
<path class="st10" d="M475.2,314.7c1.6,1,4.5,2.4,8.3,2.8c5.8,0.6,10.2-1.6,11.8-2.5c-0.5-16.6-2.5-36.8-7.7-59.3
	c-4.5-19.6-10.5-36.5-16.3-50.3c-5.2-3.4-10.4-6.9-15.7-10.3l-2.8,18.7c5.9,13.4,12.1,30.5,16.5,50.8
	C473.4,283.6,474.9,300.7,475.2,314.7z"/>
<path class="st12" d="M473.7,293.9c3,0,6.3-0.1,9.7-0.3c3.8-0.3,7.4-0.7,10.7-1.2c0.3,4.1,0.6,8.2,0.8,12.3c-2.9,0.3-6,0.5-9.3,0.7
	c-3.8,0.1-7.5,0.1-10.8,0C474.3,301.5,474,297.7,473.7,293.9z"/>
<ellipse transform="matrix(0.973 -0.2309 0.2309 0.973 -38.7982 115.5382)" class="st11" cx="474.2" cy="223.5" rx="1.2" ry="2.2"/>
<path class="st12" d="M475,230c0,0.2,0.3,4.1,3.5,5.7c1.6,0.8,3.2,0.6,3.8,0.5"/>
<path class="st14" d="M465.5,251.7c-3.7,4.9-7.4,9.9-11.2,14.8c-0.7,5.3-1.3,10.7-2,16c-0.2,0.3-1.1,1.7-3,2
	c-1.2,0.2-2.1-0.2-2.5-0.3c-0.1,0.3-1,2.9,0.7,5.3c1.3,2,3.4,2.4,3.8,2.5c0.2,0,2.9,0.1,4.5-2.2c1.2-1.7,1.3-4,0.2-5.8
	c-0.4-0.4-0.8-0.9-1.2-1.3l2-15.3l9.8-11.7L465.5,251.7z"/>
<ellipse transform="matrix(0.9809 -0.1947 0.1947 0.9809 -48.5321 81.6889)" class="st15" cx="391.3" cy="287.7" rx="0.8" ry="1.8"/>
<path class="st12" d="M452.8,213.7c2.4-0.4,5.5-1.1,8.9-2.5c4.3-1.8,7.4-4,9.6-5.8"/>
<path class="st13" d="M454.5,205c0.6,0.1,2.8,0.4,5-0.8c2.4-1.3,3.3-3.5,3.5-4c-2.4-1.7-4.9-3.4-7.3-5.1
	C455.3,198.4,454.9,201.7,454.5,205z"/>
<path class="st14" d="M289.2,280.6c-2.4,2.5-4.8,4.9-7.1,7.4c-1.1,4.9-2.2,9.8-3.3,14.8c-0.2,0.1-0.4,0.2-0.8,0.3
	c-0.2,0.1-1.2,0.4-2.3,0.6c-1.7,0.2-3.2-0.1-3.9-0.3c-1.2,2.5-0.8,5.3,1,6.9c1.6,1.4,3.7,1.2,4.1,1.1c0.2,0,2.5,0.3,4-1.5
	c1.2-1.4,1.4-3.5,0.4-5.3c0-0.6,0-1.1,0-1.7c0.9-4.4,1.8-8.8,2.7-13.2c1.9-1.8,3.8-3.6,5.6-5.4C289.5,283.1,289.4,281.8,289.2,280.6
	z"/>
<path class="st12" d="M602.9,310.2c3.9-0.6,7.8-1.1,11.8-1.7c0.3,0.3,1.2,1.4,1.3,3c0.2,2.5-1.7,4.1-1.9,4.3c-1.2,1-2.5,1.1-3.7,1.2
	c-1.7,0.1-3.1-0.2-3.9-0.5C605.2,314.3,604,312.2,602.9,310.2z"/>
<path class="st16" d="M599.5,312.8"/>
<path class="st17" d="M499,290.9c2.7-1.2,7.1-2.8,12.7-3c3.8-0.1,7,0.4,9.3,1c0.8,1.3,1.9,3.4,2.3,6.3c0.6,3.6-0.2,6.5-0.7,8
	c-3.3,1.5-8.2,3.2-14.3,3.7c-3.5,0.2-6.5,0-9-0.3c-0.7-1.2-2.2-3.8-2.3-7.3C496.8,295.1,498.3,292.1,499,290.9z"/>
<path class="st12" d="M390,295c0.2-0.2,0.6-0.4,1.1-0.5c0.5-0.1,0.9-0.2,1.2-0.2"/>
<path class="st12" d="M391.3,294.8c0.3,5,4.2,8,6.8,7.5c2.5-0.4,5.2-4.4,3.9-9.2"/>
<path class="st12" d="M400.7,293.5c0.2-0.2,0.6-0.5,1.2-0.7c0.5-0.1,1-0.1,1.2,0"/>
<polyline class="st12" points="366.7,279.7 374.3,310.1 365.7,319.2 "/>
<line class="st12" x1="420.7" y1="304.5" x2="374.3" y2="310.1"/>
<path class="st16" d="M543.3,262.2"/>
<path class="st13" d="M548.3,259.8c3.8-3.3,8-7.4,12.3-12.2c4.4-5,7.8-9.9,10.6-14.2c0,0,0,0,0,0c0.9-2.2,3.7-8.1,10.4-12.4
	c3.9-2.4,7.7-3.4,10.5-3.9c0.3,0,0.4,0.4,0.1,0.5c-2.9,0.8-6.9,2.6-10.5,6.1c-4.8,4.8-6.3,10.2-6.7,12.4c0,0,0,0,0,0
	c-0.9,2.8-2.9,7.7-7.4,12.5c-3.9,4.2-8.1,6.5-10.9,7.7c-0.3,0.1-0.2,0.5,0.1,0.5c2.5-0.2,6.5-0.8,10.5-3.3
	c8.1-5.1,9.8-13.7,10.1-15.4c0,0,0,0,0,0c0.7-2.1,2.9-8,9-12.4c5.3-3.8,10.6-4.5,12.9-4.6c0,0,0,0,0,0c1.1,0,3.4,0.2,5.9,1.5
	c1.6,0.8,2.7,1.8,3.5,2.7c0.2,0.2,0.5,0,0.4-0.3c-2.9-7.4-5.8-14.8-8.7-22.1c0-0.1-0.2-0.2-0.3-0.2l-64.8,8.2
	c-0.2,0-0.3,0.2-0.2,0.3c4.4,16.4,8.8,32.7,13.2,49.1"/>
<g>
	<path class="st14" d="M545.7,218c-3.4-3.9-9.1-4.5-12.8-1.8c-3.1,2.2-4.5,6.5-3.3,10.5l1.7-0.3c-1.1-3.4,0.2-7,3-8.8
		c3.1-2,7.5-1.4,10,1.7C544.7,218.8,545.2,218.4,545.7,218z"/>
	<path class="st14" d="M548.3,228.4c-3.5-3.9-9.2-4.5-13.1-1.8c-3.2,2.2-4.6,6.5-3.4,10.5l1.7-0.3c-1.1-3.4,0.2-7,3.1-8.8
		c3.2-2,7.6-1.4,10.2,1.7C547.3,229.2,547.8,228.8,548.3,228.4z"/>
	<path class="st14" d="M550.3,240.5c-3.4-3.9-9.1-4.5-12.8-1.8c-3.1,2.2-4.5,6.5-3.3,10.5l1.7-0.3c-1.1-3.4,0.2-7,3-8.8
		c3.1-2,7.5-1.4,10,1.7C549.3,241.3,549.8,240.9,550.3,240.5z"/>
	<path class="st14" d="M552.3,251.5c-3.4-3.9-9.1-4.5-12.8-1.8c-3.1,2.2-4.5,6.5-3.3,10.5l1.7-0.3c-1.1-3.4,0.2-7,3-8.8
		c3.1-2,7.5-1.4,10,1.7C551.3,252.3,551.8,251.9,552.3,251.5z"/>
	<path class="st14" d="M554.7,263.4c-0.5-0.3-6.6-3.6-11.8-0.7c-2,1.1-5.3,4-5,7.3c0.1,0.8,0.4,1.5,0.7,2c0.6-0.1,1.1-0.2,1.7-0.3
		c0-0.3-0.1-4.7,3.3-7.2c2.8-2,6.6-2,9.7,0C553.7,264.2,554.2,263.8,554.7,263.4z"/>
	<path class="st14" d="M558.2,274.7c-4-2.6-8.9-3.1-12.8-1c-3.6,1.9-5,5.1-5.5,6.2c0.8,0.2,1.6,0.4,2.3,0.7c0.3-0.8,1.6-3.9,5-5.5
		c3.3-1.6,7.4-1,10.5,1.3C557.8,275.8,558,275.3,558.2,274.7z"/>
	<path class="st14" d="M558.3,284.5c-0.5-0.2-6.4-2.7-11.7,0.7c-3.4,2.1-4.6,5.4-5,6.5c0.7,0.4,1.4,0.8,2.2,1.2
		c0.1-0.6,0.7-4.1,3.8-6.2c3-1.9,7-1.7,10.2,0.5C558,286.3,558.2,285.4,558.3,284.5z"/>
	<path class="st14" d="M561.2,296.9c-1.2-0.5-7.1-2.6-12.8,0.3c-1.9,1-3.3,2.3-4.2,3.3c0.3,0.6,0.6,1.1,0.8,1.7
		c0.9-1,2.6-2.7,5.2-3.7c5.6-2.1,10.6,0.5,11.5,1C561.5,298.7,561.3,297.8,561.2,296.9z"/>
	<path class="st14" d="M564.5,308.7c-1.8-0.6-6-1.8-11.2-0.7c-3.5,0.8-6.1,2.4-7.5,3.5c0.1,0.8,0.2,1.6,0.3,2.3
		c1.5-1.1,4.5-2.8,8.7-3.5c4.2-0.7,7.5,0,9.3,0.5C564.3,310.2,564.4,309.4,564.5,308.7z"/>
</g>
<path class="st1" d="M650.6,84.2c-0.9-0.3-5.3-1.7-9.9,0.6c-5.8,3-6.8,9.3-6.9,9.9c-1,2.5-3.2,7.4-8.1,11.4
	c-7.6,6.4-16.3,6.5-18.7,6.5c3.7,1.1,9.3,2.3,16,2.1c9.3-0.3,16.4-3.3,20.3-5.3c8.6-2.9,13.6-10.2,12.7-16.7
	C655.3,88.2,651.9,85.3,650.6,84.2z"/>
<path class="st1" d="M201.3,157.9c0.6,0.3,3.8,1.9,7.7,0.6c4.8-1.6,6.4-6.3,6.5-6.8c1.1-1.8,3.4-5.3,7.6-7.9
	c6.6-4,13.3-3.1,15.2-2.8c-2.7-1.3-6.8-2.9-12-3.4c-7.1-0.8-12.9,0.6-16.2,1.7c-7,1.3-11.7,6.3-11.8,11.4
	C198.2,154.3,200.4,156.9,201.3,157.9z"/>
<path class="st5" d="M716.1,97.6c0.1,0,0.3-0.1,0.5-0.2c1.7-0.8,2.1-0.9,2.7-1.2c0.5-0.2,1.1-0.6,1.8-1.3c0.2-1.4,0.3-2.9,0.5-4.3
	c0,0,0.2-0.4,0.6-0.5c0,0,0.4-0.1,0.8,0.2c0.2,0.7,0.5,1.6,1.1,2.5c0.3,0.5,0.6,0.9,1,1.2c0.4,0.3,1,0.6,1.7,0.8
	c1.1,0.3,2.1,0.2,2.7,0.1c0.5,0.1,0.9,0.5,0.9,1c0,0.3-0.2,0.6-0.6,0.8c-0.5,0.1-1.2,0.3-1.9,0.7c-0.8,0.4-1.4,0.8-1.8,1.2
	c-0.2,0.5-0.4,1.1-0.6,1.9c-0.2,0.9-0.2,1.7-0.2,2.3c0,0.6-0.4,1-0.9,1c-0.4,0-0.8-0.4-0.8-0.9c-0.2-0.5-0.4-0.9-0.6-1.4
	c-0.4-0.8-0.7-1.5-1.1-2.2c-0.5-0.2-1.1-0.4-1.8-0.5c-1.2-0.2-2.3-0.1-3,0.1c0,0-0.5,0-0.7-0.4C716.1,98.4,715.9,98,716.1,97.6z"/>
<ellipse transform="matrix(0.9809 -0.1947 0.1947 0.9809 -48.2204 83.36)" class="st15" cx="399.9" cy="287" rx="0.8" ry="1.8"/>
</svg>
